<svg width="130" height="22" viewBox="0 0 130 22" fill="none" xmlns="http://www.w3.org/2000/svg">
<path d="M0.0700912 6.99266C0.0700912 6.37082 0.493211 6.03552 1.33945 5.98675L4.60039 6.00503C4.81925 6.00503 4.96515 6.09648 5.03811 6.27938C5.37368 7.19385 5.74938 7.98334 6.16521 8.64785C6.58103 9.31237 7.12453 10.0775 7.79568 10.9432C7.85404 11.0529 7.94888 11.1078 8.08019 11.1078C8.18233 11.1078 8.26257 11.0651 8.32093 10.9798L8.38659 10.7786L8.40848 7.6145C8.40848 7.39503 8.34647 7.24871 8.22245 7.17556C8.09843 7.1024 7.86863 7.04753 7.53305 7.01095C7.27043 6.97437 7.13912 6.84025 7.13912 6.60859C7.13912 6.55981 7.14641 6.52323 7.161 6.49885C7.4674 5.70631 8.34282 5.31004 9.78726 5.31004L11.0129 5.29175C11.5673 5.29175 12.0269 5.40758 12.3916 5.63925C12.7564 5.87091 12.9388 6.2367 12.9388 6.73661V10.8883C13.0409 10.9493 13.1357 10.9798 13.2233 10.9798C13.4421 10.9798 13.6318 10.87 13.7923 10.6505C15.3973 8.77283 16.2654 7.51696 16.3967 6.88293C16.3967 6.87073 16.4113 6.84025 16.4405 6.79148C16.5426 6.60859 16.7104 6.45008 16.9438 6.31595C17.1773 6.18183 17.3815 6.09039 17.5566 6.04161C17.615 6.01723 17.6806 6.00503 17.7536 6.00503H21.1459L21.3647 6.02332C21.6565 6.02332 21.8827 6.13916 22.0432 6.37082C22.1015 6.44398 22.1416 6.52323 22.1635 6.60859C22.1854 6.69394 22.2 6.77929 22.2073 6.86464C22.2146 6.94999 22.2182 6.99876 22.2182 7.01095V7.13898C22.1161 7.63889 21.8571 8.17233 21.4413 8.7393C21.0255 9.30627 20.4966 9.91897 19.8546 10.5774C19.2126 11.2358 18.8114 11.6687 18.6509 11.8759C18.5196 12.0222 18.4539 12.1564 18.4539 12.2783C18.4539 12.3758 18.5123 12.4856 18.629 12.6075L21.8243 15.9728C21.9994 16.1678 22.0869 16.3812 22.0869 16.6129C22.0869 16.8933 21.9556 17.125 21.693 17.3079C21.4304 17.4908 21.1167 17.5944 20.7519 17.6188L20.3799 17.6371H17.0533C17.0387 17.6371 17.0095 17.6401 16.9657 17.6462C16.9219 17.6523 16.8928 17.6554 16.8782 17.6554C16.5572 17.6554 16.2581 17.5396 15.9809 17.3079C15.8787 17.2103 15.193 16.491 13.9236 15.1497C13.8507 15.0644 13.7485 14.9851 13.6172 14.912C13.5589 15.1071 13.4823 15.3875 13.3874 15.7533C13.2926 16.1191 13.2233 16.3812 13.1795 16.5397L13.1139 16.8506C12.968 17.2774 12.6616 17.5335 12.1947 17.6188L11.8883 17.6371H9.74349C8.53249 17.6371 7.32514 17.1738 6.12144 16.2471C4.91773 15.3204 3.8344 14.1225 2.87144 12.6532C1.90848 11.184 1.01117 9.47392 0.179519 7.52306C0.106567 7.36455 0.0700912 7.18775 0.0700912 6.99266ZM13.2233 11.7296C12.9169 11.7296 12.6397 11.6595 12.3916 11.5193C12.1436 11.3791 12.0196 11.187 12.0196 10.9432V6.73661C12.0196 6.49275 11.9466 6.319 11.8007 6.21536C11.6548 6.11172 11.3995 6.0599 11.0347 6.0599L9.78726 6.09648C9.15988 6.09648 8.68569 6.18793 8.36471 6.37082C9.00668 6.62687 9.32767 7.04143 9.32767 7.6145V10.8334C9.29849 11.1383 9.15258 11.3913 8.88996 11.5924C8.62733 11.7936 8.33552 11.8942 8.01454 11.8942C7.57683 11.8942 7.24125 11.7174 7.0078 11.3638C5.86975 9.92506 5.02351 8.55945 4.46908 7.267L4.27211 6.79148L1.36134 6.77319C1.17166 6.77319 1.06588 6.78233 1.044 6.80062C1.02211 6.81891 1.01117 6.87073 1.01117 6.95608C1.01117 7.06582 1.02576 7.18165 1.05494 7.30358L1.51454 8.32779C2.74013 10.9737 4.07149 13.0586 5.50864 14.5828C6.94579 16.1069 8.35741 16.8689 9.74349 16.8689H11.932C12.0196 16.8689 12.0852 16.8476 12.129 16.8049C12.1728 16.7623 12.2093 16.6799 12.2384 16.558L12.2822 16.3751L12.698 14.7657C12.8148 14.5462 12.9169 14.3999 13.0044 14.3267C13.1649 14.1926 13.3546 14.1255 13.5735 14.1255C13.9236 14.1255 14.2811 14.3023 14.6459 14.6559L16.5061 16.6312C16.6228 16.7897 16.7469 16.8689 16.8782 16.8689H20.4893C20.927 16.8689 21.1459 16.7775 21.1459 16.5946C21.1459 16.5336 21.124 16.4727 21.0802 16.4117L17.9068 13.1013C17.6588 12.8453 17.5347 12.5709 17.5347 12.2783C17.5347 11.9857 17.6515 11.7052 17.8849 11.437C18.0746 11.1931 18.443 10.7877 18.9901 10.2207C19.5373 9.65377 20.0151 9.12338 20.4236 8.62956C20.8322 8.13575 21.1021 7.68766 21.2334 7.28529L21.299 7.04753C21.2845 7.02314 21.2772 6.98352 21.2772 6.92865C21.2772 6.87378 21.2699 6.82806 21.2553 6.79148H17.8193C17.6004 6.86464 17.4253 6.97437 17.294 7.12069L17.1627 7.46819C16.7979 8.3095 15.8423 9.60805 14.2957 11.3638C13.9893 11.6077 13.6318 11.7296 13.2233 11.7296Z" fill="#666666"/>
<path d="M66.9844 4.0625C68.3177 4.0625 69.4062 4.07812 70.25 4.10937C70.9688 4.14062 71.6094 4.26562 72.1719 4.48437C72.7135 4.69271 73.1823 4.99479 73.5781 5.39062C73.974 5.78646 74.276 6.25521 74.4844 6.79687C74.7031 7.35937 74.8281 8 74.8594 8.71875C74.8906 9.5625 74.9062 10.651 74.9062 11.9844C74.9062 13.3177 74.8906 14.4062 74.8594 15.25C74.8281 15.9687 74.7031 16.6094 74.4844 17.1719C74.276 17.7135 73.974 18.1823 73.5781 18.5781C73.1823 18.974 72.7135 19.276 72.1719 19.4844C71.6094 19.7031 70.9688 19.8281 70.25 19.8594C69.4062 19.8906 68.3177 19.9062 66.9844 19.9062C65.651 19.9062 64.5625 19.8906 63.7188 19.8594C63 19.8281 62.3594 19.7031 61.7969 19.4844C61.2552 19.276 60.7865 18.974 60.3906 18.5781C59.9948 18.1823 59.6927 17.7135 59.4844 17.1719C59.2656 16.6094 59.1406 15.9687 59.1094 15.25C59.0781 14.4062 59.0625 13.3177 59.0625 11.9844C59.0625 10.651 59.0781 9.5625 59.1094 8.71875C59.1406 8 59.2656 7.35937 59.4844 6.79687C59.6927 6.25521 59.9948 5.78646 60.3906 5.39062C60.7865 4.99479 61.2552 4.69271 61.7969 4.48437C62.3594 4.26562 63 4.14062 63.7188 4.10937C64.5625 4.07812 65.651 4.0625 66.9844 4.0625ZM66.9844 5.09375C65.599 5.09375 64.4688 5.10937 63.5938 5.14062C63.0312 5.16146 62.5104 5.26042 62.0312 5.4375C61.2812 5.75 60.75 6.28125 60.4375 7.03125C60.2604 7.51042 60.1615 8.03125 60.1406 8.59375C60.1094 9.46875 60.0938 10.599 60.0938 11.9844C60.0938 13.3698 60.1094 14.5 60.1406 15.375C60.1615 15.9375 60.2604 16.4583 60.4375 16.9375C60.75 17.6875 61.2812 18.2187 62.0312 18.5312C62.5104 18.7083 63.0312 18.8073 63.5938 18.8281C64.4688 18.8594 65.599 18.875 66.9844 18.875C68.3698 18.875 69.5 18.8594 70.375 18.8281C70.9375 18.8073 71.4583 18.7083 71.9375 18.5312C72.6875 18.2187 73.2188 17.6875 73.5312 16.9375C73.7083 16.4583 73.8073 15.9375 73.8281 15.375C73.8594 14.5 73.875 13.3698 73.875 11.9844C73.875 10.599 73.8594 9.46875 73.8281 8.59375C73.8073 8.03125 73.7083 7.51042 73.5312 7.03125C73.2188 6.28125 72.6875 5.75 71.9375 5.4375C71.4583 5.26042 70.9375 5.16146 70.375 5.14062C69.5 5.10937 68.3698 5.09375 66.9844 5.09375ZM66.9844 15.1562C67.8594 15.1562 68.6068 14.8464 69.2266 14.2266C69.8464 13.6068 70.1562 12.8594 70.1562 11.9844C70.1562 11.1094 69.8464 10.362 69.2266 9.74219C68.6068 9.1224 67.8594 8.8125 66.9844 8.8125C66.1094 8.8125 65.362 9.1224 64.7422 9.74219C64.1224 10.362 63.8125 11.1094 63.8125 11.9844C63.8125 12.8594 64.1224 13.6068 64.7422 14.2266C65.362 14.8464 66.1094 15.1562 66.9844 15.1562ZM66.9844 7.92187C68.1094 7.92187 69.0677 8.31771 69.8594 9.10937C70.651 9.90104 71.0469 10.8594 71.0469 11.9844C71.0469 13.1094 70.651 14.0677 69.8594 14.8594C69.0677 15.651 68.1094 16.0469 66.9844 16.0469C65.8594 16.0469 64.901 15.651 64.1094 14.8594C63.3177 14.0677 62.9219 13.1094 62.9219 11.9844C62.9219 10.8594 63.3177 9.90104 64.1094 9.10937C64.901 8.31771 65.8594 7.92187 66.9844 7.92187ZM72.1719 7.76562C72.1719 8.02604 72.0781 8.2474 71.8906 8.42969C71.7031 8.61198 71.474 8.70312 71.2031 8.70312C70.9427 8.70312 70.7214 8.61198 70.5391 8.42969C70.3568 8.2474 70.2656 8.02604 70.2656 7.76562C70.2656 7.49479 70.3568 7.26562 70.5391 7.07812C70.7214 6.89062 70.9427 6.79687 71.2031 6.79687C71.4635 6.79687 71.6901 6.89323 71.8828 7.08594C72.0755 7.27865 72.1719 7.50521 72.1719 7.76562Z" fill="#666666"/>
<path d="M124.5 1.83325H121.75C120.534 1.83325 119.369 2.30674 118.509 3.14957C117.65 3.99239 117.167 5.1355 117.167 6.32743V9.02394H114.417V12.6193H117.167V19.81H120.833V12.6193H123.583L124.5 9.02394H120.833V6.32743C120.833 6.08905 120.93 5.86042 121.102 5.69186C121.274 5.52329 121.507 5.4286 121.75 5.4286H124.5V1.83325Z" stroke="#666666" stroke-width="1.1" stroke-linecap="round" stroke-linejoin="round"/>
</svg>
